# xmcd CD database file
#
# Track frame offsets:
#	183
#	14133
#	29433
#	44383
#	56733
#	72708
#	85458
#	99408
#	115408
#	127383
#	142383
#	155483
#
# Disc length: 2262 seconds
#
# Revision: 0
# Processed by: cddbd v1.4PL0 Copyright (c) Steve Scherf et al.
# Submitted via: CDex 1.50beta10
#
DISCID=c208d40c
DTITLE=Charlie Parker - Jazz Do It - Licor 43 - MAN
DYEAR=1995
DGENRE=Jazz
TTITLE0=I Can't Get Started
TTITLE1=Lover Man
TTITLE2=They Can't Take That Away From Me
TTITLE3=Laird Baird
TTITLE4=Old Folks
TTITLE5=I'm The Mood For Love
TTITLE6=April In Paris
TTITLE7=I Get I Kick Out Of You
TTITLE8=Au Private
TTITLE9=An Oscar For A Treadwell
TTITLE10=Ballade
TTITLE11=Cosmic Rays
EXTD=YEAR: 1995
EXTT0=
EXTT1=
EXTT2=
EXTT3=
EXTT4=
EXTT5=
EXTT6=
EXTT7=
EXTT8=
EXTT9=
EXTT10=
EXTT11=
PLAYORDER=
